<svg width="96" height="96" viewBox="0 0 96 96" fill="none" xmlns="http://www.w3.org/2000/svg">
<path fill-rule="evenodd" clip-rule="evenodd" d="M54.6564 2.0154C50.6256 -0.671799 45.3744 -0.671799 41.3436 2.0154L5.3436 26.0154C2.00521 28.241 0 31.9878 0 36V84C0 90.6274 5.37258 96 12 96H84C90.6274 96 96 90.6274 96 84V1.78814e-07H86C78.5012 1.78814e-07 72 6.07899 72 13.5778L54.6564 2.0154ZM24 46.7037C24 44.0288 25.3368 41.531 27.5624 40.0473L43.5624 29.3806C46.2496 27.5891 49.7504 27.5891 52.4376 29.3806L68.4376 40.0473C70.6632 41.531 72 44.0289 72 46.7037V64C72 68.4183 68.4183 72 64 72H32C27.5817 72 24 68.4183 24 64V46.7037Z" fill="#5C21D8"/>
<path d="M71.9999 13.5778L54.6563 2.01538L52.4375 29.3806L68.4375 40.0473C70.6631 41.531 71.9999 44.0288 71.9999 46.7037V13.5778Z" fill="url(#paint0_linear)"/>
<defs>
<linearGradient id="paint0_linear" x1="72" y1="17" x2="62" y2="17" gradientUnits="userSpaceOnUse">
<stop stop-color="#461AA6"/>
<stop offset="1" stop-color="#5C21D8"/>
</linearGradient>
</defs>
</svg>
