<svg width="416" height="96" viewBox="0 0 416 96" fill="none" xmlns="http://www.w3.org/2000/svg">
<path d="M149.28 80C157.197 80 162.146 75.0769 162.146 75.0769L164.126 79.5077H172.538V17.4769H161.156V38.1538C161.156 38.1538 156.703 33.7231 149.28 33.7231C137.897 33.7231 128 43.5692 128 56.8615C128 70.1538 137.897 80 149.28 80ZM150.764 69.1692C144.331 69.1692 139.382 64.2461 139.382 56.8615C139.382 49.4769 144.331 44.5538 150.764 44.5538C157.197 44.5538 162.146 49.4769 162.146 56.8615C162.146 64.2461 157.197 69.1692 150.764 69.1692Z" fill="white"/>
<path d="M183.441 79.5077H194.823V34.2154H183.441V79.5077ZM189.38 28.8C192.844 28.8 195.813 25.8462 195.813 22.4C195.813 18.9538 192.844 16 189.38 16C185.916 16 182.946 18.9538 182.946 22.4C182.946 25.8462 185.916 28.8 189.38 28.8Z" fill="white"/>
<path d="M222.003 80C232.395 80 238.828 73.6 238.828 66.2154C238.828 49.9692 215.569 53.9077 215.569 47.5077C215.569 45.0461 217.549 43.0769 221.013 43.0769C224.477 43.0769 226.951 45.5385 227.446 47.5077H238.333C237.344 39.6308 231.405 33.7231 220.518 33.7231C210.62 33.7231 204.187 40.1231 204.187 47.5077C204.187 63.2615 227.446 59.3231 227.446 65.7231C227.446 68.1846 224.972 70.6461 221.013 70.6461C217.054 70.6461 214.579 68.1846 214.085 65.2308H203.197C204.187 74.0923 210.126 80 222.003 80Z" fill="white"/>
<path d="M266.038 80C269.008 80 271.482 79.0154 271.482 79.0154V69.1692C271.482 69.1692 270.492 69.6615 268.513 69.6615C264.554 69.6615 262.079 67.2 262.079 63.2615V44.5538H271.977V34.2154H262.079V23.3846H252.182V29.7846C252.182 33.2308 250.202 35.2 246.738 35.2H243.769V44.5538H250.697V63.7538C250.697 73.6 257.131 80 266.038 80Z" fill="white"/>
<path d="M281.352 79.5077H292.734V55.3846C292.734 49.4769 296.693 45.5385 302.137 45.5385C304.611 45.5385 306.096 46.0308 306.096 46.0308V34.2154C306.096 34.2154 304.611 33.7231 302.632 33.7231C295.704 33.7231 291.745 39.1385 291.745 39.1385L289.765 34.2154H281.352V79.5077Z" fill="white"/>
<path d="M313.538 79.5077H324.92V34.2154H313.538V79.5077ZM319.477 28.8C322.941 28.8 325.91 25.8462 325.91 22.4C325.91 18.9538 322.941 16 319.477 16C316.013 16 313.044 18.9538 313.044 22.4C313.044 25.8462 316.013 28.8 319.477 28.8Z" fill="white"/>
<path d="M356.059 80C366.946 80 375.359 71.6308 377.338 62.7692H365.956C365.956 62.7692 363.482 69.1692 356.059 69.1692C349.625 69.1692 344.677 64.2461 344.677 56.8615C344.677 49.4769 349.625 44.5538 356.059 44.5538C363.482 44.5538 365.956 50.9538 365.956 50.9538H377.338C375.359 42.0923 366.946 33.7231 356.059 33.7231C343.687 33.7231 333.295 44.0615 333.295 56.8615C333.295 69.6615 343.687 80 356.059 80Z" fill="white"/>
<path d="M404.061 80C407.031 80 409.505 79.0154 409.505 79.0154V69.1692C409.505 69.1692 408.515 69.6615 406.536 69.6615C402.577 69.6615 400.102 67.2 400.102 63.2615V44.5538H410V34.2154H400.102V23.3846H390.205V29.7846C390.205 33.2308 388.225 35.2 384.761 35.2H381.792V44.5538H388.72V63.7538C388.72 73.6 395.154 80 404.061 80Z" fill="white"/>
<path fill-rule="evenodd" clip-rule="evenodd" d="M54.6564 2.0154C50.6256 -0.671799 45.3744 -0.671799 41.3436 2.0154L5.3436 26.0154C2.00521 28.241 0 31.9878 0 36V84C0 90.6274 5.37258 96 12 96H84C90.6274 96 96 90.6274 96 84V1.78814e-07H86C78.5012 1.78814e-07 72 6.07899 72 13.5778L54.6564 2.0154ZM24 46.7037C24 44.0288 25.3368 41.531 27.5624 40.0473L43.5624 29.3806C46.2496 27.5891 49.7504 27.5891 52.4376 29.3806L68.4376 40.0473C70.6632 41.531 72 44.0289 72 46.7037V64C72 68.4183 68.4183 72 64 72H32C27.5817 72 24 68.4183 24 64V46.7037Z" fill="white"/>
<path d="M71.9999 13.5778L54.6563 2.01538L52.4375 29.3806L68.4375 40.0473C70.6631 41.531 71.9999 44.0288 71.9999 46.7037V13.5778Z" fill="url(#paint0_linear)"/>
<defs>
<linearGradient id="paint0_linear" x1="72" y1="17" x2="62" y2="17" gradientUnits="userSpaceOnUse">
<stop stop-color="#E9DEFF"/>
<stop offset="1" stop-color="white"/>
</linearGradient>
</defs>
</svg>
